<svg width="1024" height="1024" viewBox="0 0 1024 1024" fill="none" xmlns="http://www.w3.org/2000/svg">
<g clip-path="url(#clip0_30_6)">
<rect width="1024" height="1024" fill="white"/>
<path d="M632.845 342.035C659.378 324.412 696.866 287.448 696.181 212.024C690.589 140.21 669.959 113.991 617.437 79.8571C579.307 55.3016 522.424 51.583 428.266 58.4373C404.299 61.0077 380.332 62.7213 374.34 79.8571C371.52 87.9212 369.314 110.829 359.788 123.553C349.072 137.867 330.229 141.734 312.709 144.116C307.547 71.3459 287.886 60.1509 227.967 42.1583C590.861 24.9087 749.254 43.6541 765.522 212.024C765.522 297.482 699.588 345.926 584.91 380.59C740.051 398.981 830.576 437.995 834 572.511C834 688.178 750.97 770.43 566.935 770.43L234.815 773C303.399 766.392 319.337 733.941 316.989 636.77V318.901H204V307.763H316.989V195.524L340.101 184.385V307.763H456.514V318.901H340.101V636.77C340.101 734.444 361.5 762.718 449.666 762.718C522.424 762.718 586.412 763.089 627.709 746.44C689.386 721.573 707.67 699.22 732.139 668.472C796.337 539.953 732.183 444.389 639.693 408.864C596.996 388.784 566.935 385.731 450.522 380.59C539.208 381.962 582.784 375.478 632.845 342.035Z" fill="black" stroke="black"/>
<path d="M340.337 817.182V847H336.726V817.182H340.337ZM401.99 826.5C401.67 825.52 401.247 824.641 400.723 823.865C400.209 823.078 399.593 822.409 398.874 821.855C398.166 821.302 397.36 820.88 396.457 820.589C395.555 820.298 394.565 820.152 393.487 820.152C391.721 820.152 390.114 820.608 388.668 821.521C387.222 822.433 386.071 823.777 385.217 825.554C384.363 827.33 383.936 829.509 383.936 832.091C383.936 834.673 384.368 836.852 385.232 838.628C386.096 840.404 387.265 841.749 388.741 842.661C390.216 843.574 391.876 844.03 393.72 844.03C395.428 844.03 396.933 843.666 398.234 842.938C399.544 842.2 400.563 841.162 401.291 839.822C402.029 838.473 402.398 836.886 402.398 835.061L403.504 835.294H394.535V832.091H405.892V835.294C405.892 837.75 405.368 839.885 404.32 841.7C403.281 843.515 401.844 844.923 400.01 845.923C398.185 846.913 396.089 847.408 393.72 847.408C391.08 847.408 388.76 846.786 386.761 845.544C384.771 844.302 383.218 842.535 382.102 840.244C380.995 837.954 380.442 835.236 380.442 832.091C380.442 829.732 380.757 827.611 381.388 825.728C382.029 823.836 382.931 822.224 384.096 820.895C385.261 819.565 386.639 818.546 388.231 817.837C389.823 817.128 391.575 816.774 393.487 816.774C395.06 816.774 396.525 817.012 397.884 817.488C399.253 817.953 400.471 818.618 401.539 819.482C402.616 820.336 403.514 821.36 404.232 822.554C404.95 823.739 405.446 825.054 405.717 826.5H401.99ZM446.106 847V817.182H449.717V843.797H463.578V847H446.106ZM503.199 847V817.182H521.194V820.385H506.81V830.46H520.263V833.663H506.81V843.797H521.427V847H503.199ZM578.039 824.636C577.865 823.161 577.156 822.016 575.914 821.2C574.671 820.385 573.147 819.977 571.342 819.977C570.022 819.977 568.867 820.191 567.877 820.618C566.896 821.045 566.13 821.632 565.576 822.38C565.033 823.127 564.761 823.976 564.761 824.928C564.761 825.723 564.95 826.408 565.329 826.98C565.717 827.543 566.212 828.014 566.814 828.393C567.416 828.762 568.047 829.067 568.707 829.31C569.367 829.543 569.973 829.732 570.527 829.878L573.555 830.693C574.332 830.897 575.195 831.179 576.147 831.538C577.108 831.897 578.025 832.387 578.898 833.008C579.782 833.62 580.51 834.406 581.082 835.367C581.655 836.328 581.941 837.507 581.941 838.905C581.941 840.516 581.519 841.972 580.675 843.273C579.84 844.573 578.617 845.607 577.006 846.374C575.404 847.141 573.458 847.524 571.167 847.524C569.032 847.524 567.183 847.18 565.62 846.49C564.067 845.801 562.844 844.84 561.951 843.608C561.068 842.375 560.568 840.943 560.451 839.312H564.179C564.276 840.438 564.654 841.37 565.314 842.108C565.984 842.836 566.829 843.379 567.848 843.739C568.877 844.088 569.983 844.263 571.167 844.263C572.546 844.263 573.783 844.04 574.88 843.593C575.977 843.137 576.846 842.506 577.486 841.7C578.127 840.885 578.447 839.934 578.447 838.847C578.447 837.857 578.17 837.051 577.617 836.43C577.064 835.808 576.336 835.304 575.433 834.915C574.531 834.527 573.555 834.187 572.507 833.896L568.838 832.848C566.508 832.178 564.664 831.222 563.305 829.98C561.946 828.737 561.267 827.112 561.267 825.102C561.267 823.433 561.718 821.977 562.621 820.734C563.533 819.482 564.756 818.512 566.29 817.822C567.833 817.124 569.556 816.774 571.458 816.774C573.38 816.774 575.089 817.119 576.583 817.808C578.078 818.487 579.262 819.419 580.136 820.603C581.019 821.788 581.485 823.132 581.534 824.636H578.039ZM625.519 817.182V847H621.908V817.182H625.519ZM668.012 847H664.226L675.175 817.182H678.902L689.851 847H686.066L677.155 821.899H676.922L668.012 847ZM669.409 835.352H684.668V838.555H669.409V835.352Z" fill="black"/>
<path d="M148.764 962V958.01C151.776 957.932 153.83 957.248 154.925 955.957C156.059 954.627 156.685 952.828 156.803 950.559C156.959 948.29 157.037 945.65 157.037 942.638V892.18C157.037 889.989 157.057 888.112 157.096 886.547C157.174 884.983 157.272 883.692 157.389 882.675C155.942 882.714 154.495 882.792 153.047 882.909C151.639 883.027 150.212 883.125 148.764 883.203V877.864C153.145 877.785 157.565 877.727 162.024 877.688C166.483 877.648 171.099 877.629 175.871 877.629C185.22 877.629 192.495 879.291 197.697 882.616C202.9 885.902 205.442 891.104 205.325 898.223C205.286 902.134 203.623 905.909 200.338 909.547C197.091 913.184 192.143 915.61 185.493 916.822V917.057C194.333 917.057 200.983 919.091 205.442 923.159C209.94 927.188 212.189 932.292 212.189 938.472C212.189 945.826 209.49 951.595 204.093 955.781C198.695 959.927 191.947 962 183.851 962H148.764ZM167.129 957.189C168.381 957.306 169.906 957.384 171.705 957.424C173.505 957.463 175.187 957.482 176.751 957.482C178.316 957.443 179.352 957.424 179.861 957.424C186.041 957.424 191.028 955.898 194.822 952.847C198.616 949.757 200.514 945.2 200.514 939.176C200.514 934.287 199.536 930.473 197.58 927.735C195.663 924.997 193.14 923.081 190.011 921.985C186.882 920.851 183.499 920.284 179.861 920.284C177.475 920.284 175.304 920.323 173.348 920.401C171.392 920.44 169.437 920.519 167.481 920.636V947.801C167.481 949.953 167.442 951.811 167.364 953.375C167.324 954.901 167.246 956.172 167.129 957.189ZM167.481 916.001L176.282 915.766C180.858 915.649 184.457 914.71 187.078 912.95C189.737 911.15 191.634 908.882 192.769 906.144C193.903 903.406 194.451 900.55 194.412 897.578C194.333 893.236 193.355 889.95 191.478 887.721C189.6 885.491 187.293 883.985 184.555 883.203C181.856 882.381 179.176 881.971 176.516 881.971C172.605 881.971 170.121 882.812 169.065 884.494C168.009 886.176 167.481 889.226 167.481 893.646V916.001ZM303.333 930.904C303.333 927.344 302.844 924.821 301.866 923.335C300.927 921.809 299.402 920.89 297.29 920.577C295.217 920.264 292.479 920.166 289.076 920.284L280.275 920.636V948.153C280.275 950.305 280.236 952.163 280.157 953.727C280.118 955.253 280.04 956.524 279.923 957.541L302.864 957.189C306.345 957.15 309.376 956.583 311.958 955.487C314.579 954.353 316.593 952.436 318.001 949.737C319.448 947.039 320.172 943.323 320.172 938.59H324.279L323.516 962H261.558V958.01C264.57 957.893 266.624 957.208 267.719 955.957C268.853 954.666 269.479 952.945 269.596 950.794C269.753 948.603 269.831 946.1 269.831 943.283V891.358C269.831 889.715 269.85 888.17 269.89 886.723C269.968 885.237 270.066 883.887 270.183 882.675C268.736 882.714 267.288 882.792 265.841 882.909C264.433 883.027 263.005 883.125 261.558 883.203V877.864H319.351L319.937 898.927H315.948C315.948 894.194 315.224 890.615 313.777 888.19C312.329 885.726 310.374 884.083 307.909 883.261C305.484 882.401 302.766 882.01 299.754 882.088L289.428 882.323C286.416 882.401 284.264 882.968 282.974 884.024C281.722 885.041 280.959 886.586 280.685 888.659C280.412 890.732 280.275 893.392 280.275 896.639V915.883L302.864 916.001L302.042 905.616H307.323V930.904H303.333ZM438.401 903.269C438.284 896.15 437.189 890.85 435.116 887.369C433.082 883.848 428.975 882.127 422.794 882.205H412.527L412.409 947.684C412.409 949.835 412.37 951.713 412.292 953.316C412.253 954.881 412.175 956.172 412.057 957.189C413.778 957.111 415.441 957.032 417.044 956.954C418.687 956.837 420.35 956.759 422.032 956.719V962H393.81V958.01C396.822 957.893 398.876 957.189 399.971 955.898C401.105 954.568 401.711 952.808 401.79 950.618C401.907 948.427 401.966 945.982 401.966 943.283L402.083 882.323L389.703 882.44C384.657 882.44 381.098 884.142 379.025 887.545C376.952 890.908 375.915 896.15 375.915 903.269H371.456L372.16 877.864H442.215L442.978 903.269H438.401ZM481.374 962V958.01C483.799 958.01 485.638 957.384 486.889 956.133C488.18 954.842 489.236 953.082 490.058 950.852C490.918 948.584 491.896 945.963 492.991 942.99L517.751 875.575H520.626L547.439 943.988C548.104 945.669 548.808 947.84 549.552 950.5C550.334 953.16 550.666 955.39 550.549 957.189C551.918 957.111 553.287 957.032 554.656 956.954C556.025 956.837 557.394 956.759 558.763 956.719V962H531.246V958.01C534.258 957.932 536.233 957.267 537.172 956.015C538.15 954.725 538.521 953.219 538.286 951.498C538.091 949.737 537.7 948.114 537.113 946.628L532.889 935.304L501.675 936.067L497.45 948.916C496.864 950.833 496.355 952.358 495.925 953.492C495.495 954.627 495.006 955.859 494.458 957.189C496.023 957.111 497.587 957.032 499.152 956.954C500.716 956.837 502.281 956.759 503.846 956.719V962H481.374ZM503.494 930.904H531.246L522.68 907.904C521.819 905.44 520.919 902.975 519.981 900.511C519.081 898.047 518.181 895.583 517.282 893.118H517.047C516.186 895.387 515.345 897.656 514.524 899.924C513.703 902.154 512.862 904.423 512.001 906.73L503.494 930.904ZM668.778 963.936L620.842 899.514C620.099 898.536 619.395 897.597 618.73 896.697C618.065 895.798 617.361 894.859 616.618 893.881H616.5L616.852 945.278C616.852 947.312 616.833 949.327 616.794 951.322C616.794 953.316 616.735 955.272 616.618 957.189C618.065 957.111 619.512 957.032 620.959 956.954C622.407 956.837 623.854 956.759 625.301 956.719V962H603.299V958.01C605.763 958.01 607.543 957.482 608.638 956.426C609.773 955.37 610.477 954.099 610.75 952.612C611.063 951.126 611.22 949.777 611.22 948.564L611.337 890.772C611.337 889.403 611.337 888.053 611.337 886.723C611.337 885.354 611.337 884.005 611.337 882.675C610.007 882.714 608.658 882.792 607.289 882.909C605.959 883.027 604.629 883.125 603.299 883.203V877.864H617.556L662.617 938.179C663.634 939.587 664.651 940.976 665.668 942.345C666.724 943.675 667.761 945.024 668.778 946.393H668.895L669.012 891.358C669.012 889.715 669.032 888.17 669.071 886.723C669.149 885.237 669.247 883.887 669.364 882.675C667.917 882.714 666.47 882.792 665.023 882.909C663.614 883.027 662.187 883.125 660.739 883.203V877.864H682.859V881.853C679.847 881.971 677.794 882.675 676.698 883.966C675.603 885.217 674.997 886.938 674.88 889.129C674.801 891.28 674.762 893.783 674.762 896.639L674.527 963.936H668.778ZM760.816 881.853C757.844 881.971 755.79 882.675 754.656 883.966C753.521 885.217 752.876 886.938 752.719 889.129C752.602 891.28 752.543 893.783 752.543 896.639V947.684C752.543 949.835 752.504 951.713 752.426 953.316C752.387 954.881 752.309 956.172 752.191 957.189C753.639 957.111 755.066 957.032 756.474 956.954C757.922 956.837 759.369 956.759 760.816 956.719V962H733.827V958.01C736.839 957.893 738.892 957.208 739.988 955.957C741.122 954.666 741.748 952.945 741.865 950.794C742.021 948.603 742.1 946.1 742.1 943.283V891.358C742.1 889.715 742.119 888.17 742.158 886.723C742.237 885.237 742.334 883.887 742.452 882.675C741.005 882.714 739.557 882.792 738.11 882.909C736.702 883.027 735.274 883.125 733.827 883.203V877.864H760.816V881.853ZM806.005 962V958.01C808.43 958.01 810.269 957.384 811.52 956.133C812.811 954.842 813.867 953.082 814.689 950.852C815.549 948.584 816.527 945.963 817.622 942.99L842.382 875.575H845.257L872.071 943.988C872.736 945.669 873.44 947.84 874.183 950.5C874.965 953.16 875.298 955.39 875.18 957.189C876.549 957.111 877.918 957.032 879.287 956.954C880.656 956.837 882.025 956.759 883.394 956.719V962H855.877V958.01C858.889 957.932 860.864 957.267 861.803 956.015C862.781 954.725 863.152 953.219 862.918 951.498C862.722 949.737 862.331 948.114 861.744 946.628L857.52 935.304L826.306 936.067L822.082 948.916C821.495 950.833 820.986 952.358 820.556 953.492C820.126 954.627 819.637 955.859 819.089 957.189C820.654 957.111 822.218 957.032 823.783 956.954C825.348 956.837 826.912 956.759 828.477 956.719V962H806.005ZM828.125 930.904H855.877L847.311 907.904C846.45 905.44 845.551 902.975 844.612 900.511C843.712 898.047 842.813 895.583 841.913 893.118H841.678C840.818 895.387 839.977 897.656 839.155 899.924C838.334 902.154 837.493 904.423 836.632 906.73L828.125 930.904Z" fill="black"/>
</g>
<defs>
<clipPath id="clip0_30_6">
<rect width="1024" height="1024" fill="white"/>
</clipPath>
</defs>
</svg>
