<svg width="1024" height="1024" viewBox="0 0 1024 1024" fill="none" xmlns="http://www.w3.org/2000/svg">
<rect width="1024" height="1024" fill="white"/>
<path d="M651.867 434.248C684.465 412.627 730.521 367.275 729.679 274.738C722.809 186.628 697.464 154.461 632.937 112.581C586.091 82.4543 516.207 77.8919 400.527 86.3015C371.082 89.4551 341.636 91.5575 334.274 112.581C330.81 122.475 328.1 150.582 316.397 166.192C303.231 183.754 280.081 188.499 258.557 191.421C252.215 102.139 228.06 88.4039 154.446 66.3287C600.286 45.1652 794.884 68.164 814.87 274.738C814.87 379.586 733.865 439.022 592.976 481.552C783.577 504.115 894.793 551.982 899 717.02C899 858.931 796.992 959.846 570.891 959.846L162.859 963C247.119 954.892 266.699 915.078 263.815 795.86V405.865H125V392.2H263.815V254.493L292.209 240.827V392.2H435.231V405.865H292.209V795.86C292.209 915.696 318.5 950.386 426.818 950.386C516.207 950.386 594.821 950.841 645.557 930.413C721.332 899.904 743.795 872.479 773.856 834.754C852.728 677.074 773.911 559.826 660.28 516.241C607.824 491.605 570.891 487.859 427.869 481.552C536.827 483.235 590.363 475.279 651.867 434.248Z" fill="black" stroke="black"/>
</svg>
